<?xml version="1.0" standalone="no"?>
<!DOCTYPE svg PUBLIC "-//W3C//DTD SVG 20010904//EN"
 "http://www.w3.org/TR/2001/REC-SVG-20010904/DTD/svg10.dtd">
<svg version="1.0" xmlns="http://www.w3.org/2000/svg"
 width="700.000000pt" height="700.000000pt" viewBox="0 0 700.000000 700.000000"
 preserveAspectRatio="xMidYMid meet">
<metadata>
Created by potrace 1.14, written by Peter Selinger 2001-2017
</metadata>
<g transform="translate(0.000000,700.000000) scale(0.100000,-0.100000)"
fill="#000000" stroke="none">
<path d="M2629 6416 c-1 -1 -2 -394 -3 -873 -1 -577 2 -873 9 -874 39 -4 1735
-3 1736 1 1 3 2 395 3 872 1 573 -2 869 -9 871 -9 4 -1733 6 -1736 3z"/>
<path d="M4669 4370 c-3 -13 -4 -1726 -2 -1735 2 -7 297 -10 871 -9 477 1 869
2 873 3 4 1 5 1706 1 1736 -2 10 -1741 15 -1743 5z"/>
<path d="M598 2332 c-13 -3 -15 -100 -14 -875 l1 -872 873 0 c779 -1 872 1
873 15 4 63 3 1723 -1 1728 -5 7 -1700 10 -1732 4z"/>
<path d="M2645 2332 c-20 -3 -20 -10 -20 -875 l0 -872 875 0 875 0 1 860 c0
473 -2 867 -5 875 -5 13 -110 15 -856 15 -467 0 -859 -1 -870 -3z"/>
<path d="M4671 2320 c-5 -11 -7 -1640 -2 -1721 1 -14 84 -16 874 -15 l872 1 1
873 c0 783 -1 872 -15 873 -9 0 -400 2 -869 2 -750 2 -855 0 -861 -13z"/>
</g>
</svg>
